# xmcd
#
# Track frame offsets: 
#        150
#        12920
#        24962
#        39757
#        57405
#        72892
#        97167
#        107412
#        132840
#        144782
#        160275
#        175270
#        196157
#        213415
#        231547
#
# Disc length: 3509 seconds
#
# Revision: 0
# Processed by: cddbd v1.5.1PL0 Copyright (c) Steve Scherf et al.
# Submitted via: ExactAudioCopy v0.95a5
#
DISCID=c50db30f
DTITLE=White Sands Panhandle Band - Sandsational
DYEAR=1999
DGENRE=Bluegrass
TTITLE0=Hummingbird
TTITLE1=I'm So Blue I Could Cry
TTITLE2=A Fool Such AS I
TTITLE3=Red Haired  Boy
TTITLE4=Take This Hammer
TTITLE5=Long Black Veil
TTITLE6=Memphis
TTITLE7=High On A Mountain Top
TTITLE8=This Here Bottle
TTITLE9=Sitting Alone In The Moonlight
TTITLE10=White Freightliner
TTITLE11=Ashokan Farewell
TTITLE12=Jezebel
TTITLE13=I Never Once Stopped Loving You
TTITLE14=Ghost Rider's Medley
EXTD=
EXTT0=
EXTT1=
EXTT2=
EXTT3=
EXTT4=
EXTT5=
EXTT6=
EXTT7=
EXTT8=
EXTT9=
EXTT10=
EXTT11=
EXTT12=
EXTT13=
EXTT14=
PLAYORDER=
